<mxfile host="app.diagrams.net" agent="Mozilla/5.0 (Windows NT 10.0; Win64; x64) AppleWebKit/537.36 (KHTML, like Gecko) Chrome/140.0.0.0 Safari/537.36" version="28.2.5">
  <diagram name="Página-1" id="TvcCKH__r2QW2rpzPC3X">
    <mxGraphModel dx="1426" dy="777" grid="1" gridSize="10" guides="1" tooltips="1" connect="1" arrows="1" fold="1" page="1" pageScale="1" pageWidth="827" pageHeight="1169" math="0" shadow="0">
      <root>
        <mxCell id="0" />
        <mxCell id="1" parent="0" />
        <mxCell id="imTNTebxDXXqZac54Ss_-1" value="" style="ellipse;html=1;shape=startState;fillColor=#000000;strokeColor=#ff0000;" vertex="1" parent="1">
          <mxGeometry x="383" y="70" width="30" height="30" as="geometry" />
        </mxCell>
        <mxCell id="imTNTebxDXXqZac54Ss_-2" value="" style="edgeStyle=orthogonalEdgeStyle;html=1;verticalAlign=bottom;endArrow=open;endSize=8;strokeColor=#ff0000;rounded=0;" edge="1" source="imTNTebxDXXqZac54Ss_-1" parent="1">
          <mxGeometry relative="1" as="geometry">
            <mxPoint x="398" y="150" as="targetPoint" />
          </mxGeometry>
        </mxCell>
        <mxCell id="imTNTebxDXXqZac54Ss_-3" value="Mesário" style="text;html=1;align=center;verticalAlign=middle;resizable=0;points=[];autosize=1;strokeColor=none;fillColor=none;" vertex="1" parent="1">
          <mxGeometry x="360" y="40" width="70" height="30" as="geometry" />
        </mxCell>
        <mxCell id="imTNTebxDXXqZac54Ss_-12" style="edgeStyle=orthogonalEdgeStyle;rounded=0;orthogonalLoop=1;jettySize=auto;html=1;entryX=0.5;entryY=0;entryDx=0;entryDy=0;" edge="1" parent="1" source="imTNTebxDXXqZac54Ss_-4" target="imTNTebxDXXqZac54Ss_-11">
          <mxGeometry relative="1" as="geometry" />
        </mxCell>
        <mxCell id="imTNTebxDXXqZac54Ss_-4" value="Solicita os documentos do eleitor" style="html=1;whiteSpace=wrap;" vertex="1" parent="1">
          <mxGeometry x="340" y="150" width="110" height="50" as="geometry" />
        </mxCell>
        <mxCell id="imTNTebxDXXqZac54Ss_-5" value="Condition" style="rhombus;whiteSpace=wrap;html=1;fontColor=#000000;fillColor=#ffffc0;strokeColor=#ff0000;" vertex="1" parent="1">
          <mxGeometry x="355" y="290" width="80" height="40" as="geometry" />
        </mxCell>
        <mxCell id="imTNTebxDXXqZac54Ss_-6" value="Documentos não&amp;nbsp;&lt;span style=&quot;background-color: light-dark(#ffffff, var(--ge-dark-color, #121212)); color: light-dark(rgb(0, 0, 0), rgb(255, 255, 255));&quot;&gt;aprovados&lt;/span&gt;" style="edgeStyle=orthogonalEdgeStyle;html=1;align=left;verticalAlign=bottom;endArrow=open;endSize=8;strokeColor=#ff0000;rounded=0;" edge="1" source="imTNTebxDXXqZac54Ss_-5" parent="1">
          <mxGeometry x="-1" relative="1" as="geometry">
            <mxPoint x="585" y="310" as="targetPoint" />
          </mxGeometry>
        </mxCell>
        <mxCell id="imTNTebxDXXqZac54Ss_-7" value="Documentos aprovados" style="edgeStyle=orthogonalEdgeStyle;html=1;align=left;verticalAlign=top;endArrow=open;endSize=8;strokeColor=#ff0000;rounded=0;" edge="1" source="imTNTebxDXXqZac54Ss_-5" parent="1">
          <mxGeometry x="-1" relative="1" as="geometry">
            <mxPoint x="395" y="390" as="targetPoint" />
          </mxGeometry>
        </mxCell>
        <mxCell id="imTNTebxDXXqZac54Ss_-8" value="Libera a urna para votação" style="html=1;whiteSpace=wrap;" vertex="1" parent="1">
          <mxGeometry x="340" y="390" width="110" height="50" as="geometry" />
        </mxCell>
        <mxCell id="imTNTebxDXXqZac54Ss_-26" style="edgeStyle=orthogonalEdgeStyle;rounded=0;orthogonalLoop=1;jettySize=auto;html=1;" edge="1" parent="1" source="imTNTebxDXXqZac54Ss_-9" target="imTNTebxDXXqZac54Ss_-19">
          <mxGeometry relative="1" as="geometry" />
        </mxCell>
        <mxCell id="imTNTebxDXXqZac54Ss_-9" value="Aguarda o eleitor realizar os votos" style="html=1;whiteSpace=wrap;" vertex="1" parent="1">
          <mxGeometry x="340" y="520" width="110" height="50" as="geometry" />
        </mxCell>
        <mxCell id="imTNTebxDXXqZac54Ss_-11" value="Verifica os documentos" style="html=1;whiteSpace=wrap;" vertex="1" parent="1">
          <mxGeometry x="340" y="240" width="110" height="50" as="geometry" />
        </mxCell>
        <mxCell id="imTNTebxDXXqZac54Ss_-13" value="Impede o eleitor de realizar o voto" style="html=1;whiteSpace=wrap;" vertex="1" parent="1">
          <mxGeometry x="590" y="280" width="110" height="50" as="geometry" />
        </mxCell>
        <mxCell id="imTNTebxDXXqZac54Ss_-19" value="Encerra a votação" style="html=1;whiteSpace=wrap;" vertex="1" parent="1">
          <mxGeometry x="340" y="610" width="110" height="50" as="geometry" />
        </mxCell>
        <mxCell id="imTNTebxDXXqZac54Ss_-20" value="Condition" style="rhombus;whiteSpace=wrap;html=1;fontColor=#000000;fillColor=#ffffc0;strokeColor=#ff0000;" vertex="1" parent="1">
          <mxGeometry x="355" y="660" width="80" height="40" as="geometry" />
        </mxCell>
        <mxCell id="imTNTebxDXXqZac54Ss_-21" value="Se não houver mais eleitores na sessão" style="edgeStyle=orthogonalEdgeStyle;html=1;align=left;verticalAlign=bottom;endArrow=open;endSize=8;strokeColor=#ff0000;rounded=0;" edge="1" source="imTNTebxDXXqZac54Ss_-20" parent="1">
          <mxGeometry x="-1" relative="1" as="geometry">
            <mxPoint x="640" y="680" as="targetPoint" />
          </mxGeometry>
        </mxCell>
        <mxCell id="imTNTebxDXXqZac54Ss_-22" value="Se houver mais eleitores na sessão" style="edgeStyle=orthogonalEdgeStyle;html=1;align=left;verticalAlign=top;endArrow=open;endSize=8;strokeColor=#ff0000;rounded=0;entryX=0;entryY=0.5;entryDx=0;entryDy=0;" edge="1" parent="1">
          <mxGeometry x="-0.6364" relative="1" as="geometry">
            <mxPoint x="340" y="172.5" as="targetPoint" />
            <mxPoint x="395" y="700" as="sourcePoint" />
            <Array as="points">
              <mxPoint x="395" y="720" />
              <mxPoint x="280" y="720" />
              <mxPoint x="280" y="173" />
            </Array>
            <mxPoint as="offset" />
          </mxGeometry>
        </mxCell>
        <mxCell id="imTNTebxDXXqZac54Ss_-23" value="" style="ellipse;html=1;shape=endState;fillColor=#000000;strokeColor=#ff0000;" vertex="1" parent="1">
          <mxGeometry x="640" y="665" width="30" height="30" as="geometry" />
        </mxCell>
        <mxCell id="imTNTebxDXXqZac54Ss_-24" value="Sessão encerrada" style="text;html=1;align=center;verticalAlign=middle;resizable=0;points=[];autosize=1;strokeColor=none;fillColor=none;" vertex="1" parent="1">
          <mxGeometry x="595" y="695" width="120" height="30" as="geometry" />
        </mxCell>
        <mxCell id="imTNTebxDXXqZac54Ss_-25" value="Sessão interrompida/cancelada" style="html=1;whiteSpace=wrap;" vertex="1" parent="1">
          <mxGeometry x="590" y="435" width="130" height="50" as="geometry" />
        </mxCell>
        <mxCell id="imTNTebxDXXqZac54Ss_-27" value="Condition" style="rhombus;whiteSpace=wrap;html=1;fontColor=#000000;fillColor=#ffffc0;strokeColor=#ff0000;" vertex="1" parent="1">
          <mxGeometry x="355" y="440" width="80" height="40" as="geometry" />
        </mxCell>
        <mxCell id="imTNTebxDXXqZac54Ss_-28" value="Se houver problema na urna" style="edgeStyle=orthogonalEdgeStyle;html=1;align=left;verticalAlign=bottom;endArrow=open;endSize=8;strokeColor=#ff0000;rounded=0;" edge="1" source="imTNTebxDXXqZac54Ss_-27" parent="1">
          <mxGeometry x="-1" relative="1" as="geometry">
            <mxPoint x="590" y="460" as="targetPoint" />
          </mxGeometry>
        </mxCell>
        <mxCell id="imTNTebxDXXqZac54Ss_-29" value="Se não houver problema com a urna" style="edgeStyle=orthogonalEdgeStyle;html=1;align=left;verticalAlign=top;endArrow=open;endSize=8;strokeColor=#ff0000;rounded=0;entryX=0.5;entryY=0;entryDx=0;entryDy=0;" edge="1" source="imTNTebxDXXqZac54Ss_-27" parent="1" target="imTNTebxDXXqZac54Ss_-9">
          <mxGeometry x="-1" relative="1" as="geometry">
            <mxPoint x="395" y="510" as="targetPoint" />
          </mxGeometry>
        </mxCell>
      </root>
    </mxGraphModel>
  </diagram>
</mxfile>
